<svg xmlns="http://www.w3.org/2000/svg" viewBox="0 0 118.27 115.09">
  <defs>
    <style>
      .aafb862d-27bc-4c93-8cb5-d1face0f0c7b {
        fill: #212121;
      }

      .f2638439-fece-4ff0-b2a9-d5b94865f499 {
        fill: none;
        stroke: #3c3c3b;
        stroke-linecap: round;
        stroke-linejoin: round;
        stroke-width: 4px;
      }

      .f47f5bc1-8874-4400-a6e9-d782104b609f {
        fill: #59b574;
      }
    </style>
  </defs>
  <title>Asset 2horn</title>
  <g id="a60d5d6b-f09e-490d-9c24-49eb1cd83d59" data-name="Layer 2">
    <g id="b04139d0-dc1f-4f7b-9829-de82cd30b279" data-name="Layer 1">
      <g id="bb158647-fa80-40a6-af4e-e376622fa06f" data-name="Horn">
        <g>
          <path class="aafb862d-27bc-4c93-8cb5-d1face0f0c7b" d="M12.47,86.15a3.86,3.86,0,0,1-1.29-.23,3.7,3.7,0,0,1-2.12-2L.36,65.29a3.7,3.7,0,0,1-.13-2.88,3.73,3.73,0,0,1,2-2.12L5.9,58.55a2,2,0,0,1,1.69,3.63L4.08,63.81l8.5,18.26,3.52-1.64a2,2,0,0,1,1.69,3.63l-3.73,1.73A3.66,3.66,0,0,1,12.47,86.15Zm-.1-4Z"/>
          <g>
            <path class="aafb862d-27bc-4c93-8cb5-d1face0f0c7b" d="M42.85,115.09a5.85,5.85,0,0,1-5.31-3.37L24.92,84.62a2,2,0,1,1,3.62-1.69L41.16,110a1.86,1.86,0,0,0,2.46.89l6.1-2.84a1.85,1.85,0,0,0,1-1,1.82,1.82,0,0,0-.07-1.41L38,78.52a2,2,0,1,1,3.62-1.69l12.63,27.11a5.84,5.84,0,0,1-2.83,7.77l-6.1,2.84A5.82,5.82,0,0,1,42.85,115.09Z"/>
            <path class="aafb862d-27bc-4c93-8cb5-d1face0f0c7b" d="M26.73,85.78A2,2,0,0,1,25.88,82L39,75.86a2,2,0,0,1,1.7,3.62L27.57,85.59A1.94,1.94,0,0,1,26.73,85.78Z"/>
            <path class="aafb862d-27bc-4c93-8cb5-d1face0f0c7b" d="M39.8,79.67A2,2,0,0,1,39,75.86l5.72-2.67L31.5,44.92,7.6,56.08a.57.57,0,0,0-.3.33.5.5,0,0,0,0,.43l1.24,2.68a2,2,0,1,1-3.62,1.69L3.69,58.53a4.57,4.57,0,0,1,2.22-6.07l25.71-12a2,2,0,0,1,1.53-.07,2,2,0,0,1,1.13,1L49.14,73.31a2,2,0,0,1-1,2.66l-7.52,3.51A2,2,0,0,1,39.8,79.67Z"/>
            <path class="aafb862d-27bc-4c93-8cb5-d1face0f0c7b" d="M20.53,88.41a4.6,4.6,0,0,1-4.15-2.64l-1.25-2.68a2,2,0,1,1,3.63-1.69L20,84.08a.58.58,0,0,0,.33.29.54.54,0,0,0,.43,0L25.88,82a2,2,0,1,1,1.69,3.63L22.45,88A4.48,4.48,0,0,1,20.53,88.41Z"/>
          </g>
          <path class="aafb862d-27bc-4c93-8cb5-d1face0f0c7b" d="M16.94,84.25a2,2,0,0,1-1.81-1.16L4.94,61.21a2,2,0,1,1,3.62-1.69L18.76,81.4a2,2,0,0,1-1,2.66A2,2,0,0,1,16.94,84.25Z"/>
        </g>
        <path class="aafb862d-27bc-4c93-8cb5-d1face0f0c7b" d="M53,78.94c-5.15,0-6.12-.9-6.65-2L29.77,41.25A2,2,0,0,1,30.15,39l14.3-14.79c.71-.73,1.55-1.73,2.43-2.77,3.85-4.56,8.63-10.23,14.26-9.11h0a9,9,0,0,1,4.94,3.07C70.11,20,91,60.65,90.59,67.56c-.37,6.09-7.84,7.79-11.43,8.6-1.57.36-8.9,1.45-16.18,2.16C58.57,78.75,55.37,78.94,53,78.94Zm-3.25-4.21c3.77,1,24.63-1.58,28.49-2.47,4.23-1,8.16-2.22,8.33-5,.3-5-19.14-44.32-23.51-49.24a5.22,5.22,0,0,0-2.73-1.8h0C57,15.62,52.94,20.48,49.94,24c-.93,1.1-1.81,2.14-2.62,3L34,40.81Z"/>
        <g>
          <path class="f2638439-fece-4ff0-b2a9-d5b94865f499" d="M90.93,51.54h0"/>
          <path class="f47f5bc1-8874-4400-a6e9-d782104b609f" d="M90.94,53.54a2,2,0,0,1-.77-3.84l0,0c2-1,2.57-3.67,2.71-5.18a19.92,19.92,0,0,0-2-10,20,20,0,0,0-6.36-8c-1.26-.87-3.66-2.17-5.72-1.25l-.07,0a2,2,0,0,1-1.87-3.54l.2-.1h0c2.88-1.34,6.33-.79,9.73,1.56a24,24,0,0,1,7.72,9.6,24,24,0,0,1,2.38,12.09C96.52,49,94.72,52,91.85,53.33h0l-.22.09A2.09,2.09,0,0,1,90.94,53.54Z"/>
        </g>
        <g>
          <path class="f47f5bc1-8874-4400-a6e9-d782104b609f" d="M86.74,18.39a2.09,2.09,0,0,1-.69-.12,2,2,0,0,1-1.19-2.57L90.1,1.32a2,2,0,1,1,3.76,1.37L88.61,17.07A2,2,0,0,1,86.74,18.39Z"/>
          <path class="f47f5bc1-8874-4400-a6e9-d782104b609f" d="M116.27,56.15a2,2,0,0,1-.68-.12L101.2,50.79A2,2,0,1,1,102.57,47L117,52.27a2,2,0,0,1-.68,3.88Z"/>
          <path class="f47f5bc1-8874-4400-a6e9-d782104b609f" d="M100,32a2,2,0,0,1-.85-3.81L113,21.73a2,2,0,0,1,1.69,3.63l-13.88,6.46A1.94,1.94,0,0,1,100,32Z"/>
        </g>
      </g>
    </g>
  </g>
</svg>
