<svg id="Layer_1" data-name="Layer 1" xmlns="http://www.w3.org/2000/svg" viewBox="0 0 80 80"><defs><style>.cls-1{fill:#6cd48d;}</style></defs><title>backercamp-crowdfunding</title><path d="M12.22,53.24c7.87-7.78,16-15.12,24.45-22.31.72-.62-.31-1.6-1-1a210,210,0,0,0-24.1,22.67.48.48,0,0,0,.68.67Z"/><path d="M17,57.22c10.13-2.66,20.2-5.76,30.13-9.08A.61.61,0,0,0,46.82,47c-10.1,2.78-20.19,5.82-30.08,9.26a.52.52,0,0,0,.27,1Z"/><path d="M37.25,31c5.6,3.49,9.23,8,10,14.7.1.86,1.42.91,1.38,0-.22-6.53-4.67-13.48-11.1-15.46a.42.42,0,0,0-.32.76Z"/><path d="M35.78,31.43c.85,6.26,5.08,12.79,10.15,16.49.63.46,1.31-.52.81-1.05a46.84,46.84,0,0,1-6.3-7.61,59.77,59.77,0,0,1-3.82-8.19c-.22-.53-.9-.11-.84.36Z"/><path d="M11.61,53.26c-.07,2.13,2.23,3.82,4.13,4.17l.2-1.49a.73.73,0,0,1-.75-.5c-.38-.74-1.42-.2-1.28.54a1.92,1.92,0,0,0,2,1.48c.81,0,1.08-1.32.2-1.49a4.47,4.47,0,0,1-2.18-1A10.87,10.87,0,0,1,12.51,53a.49.49,0,0,0-.9.25Z"/><path d="M37.34,31.38l.2-1-1.06.6C42,32.66,47.31,41,46,46.79c-.19.82.88,1.58,1.5.87,2.2-2.5-.33-6.34-1.62-8.75-1.81-3.36-4.09-7.48-8-8.69A.92.92,0,0,0,37,31.74c3.46,3.63,6.81,7.36,7.61,12.48l1.66-.7A58.54,58.54,0,0,0,38,29.75c-.56-.69-1.82.06-1.51.89,1,2.72,2.91,4.63,4.57,7a34.66,34.66,0,0,1,4.64,9.31l1.65-.69c-1.26-2.8-2.59-5.55-3.9-8.32-.42-.91-1.71-.12-1.32.77,1.21,2.83,2.4,5.66,3.66,8.46.42.93,2,.27,1.65-.7a37.44,37.44,0,0,0-3.57-7.87c-1.76-2.85-4.46-5.26-5.63-8.42L36.69,31a54.37,54.37,0,0,1,7.93,13.18.91.91,0,0,0,1.76-.48c-.82-5.41-4.44-9.46-8.09-13.28L37.41,32c2.92.91,4.6,3.93,6.07,6.39.88,1.46,4.19,6.5,2.71,8l1.5.87c1.6-6.81-4-16.14-10.76-18a.88.88,0,0,0-1.09.83v1c0,.83,1.33,1.07,1.49.21Z"/><path d="M45.82,41.62a9.69,9.69,0,0,1,.72,2,19,19,0,0,0,.41,2,.58.58,0,0,0,1.14-.16c.13-1.48-.8-3.05-1.58-4.25a.4.4,0,0,0-.69.41Z"/><path d="M47.38,44.74a2.57,2.57,0,0,0-.29.44.54.54,0,0,0,.93.55,1.69,1.69,0,0,0,.23-.49c.17-.47-.54-.91-.87-.5Z"/><path d="M21.77,55.2a32.8,32.8,0,0,0,2.52,5.73c.71,1.46,1.54,1.6,3,.87,1.22-.62,2.73-1.18,2.21-2.8a17.78,17.78,0,0,0-1.36-2.59,14.66,14.66,0,0,0-1.73-2.84c-.53-.6-1.51,0-1.31.77a18,18,0,0,0,1.85,3.76,10,10,0,0,1,.81,1.5,6.16,6.16,0,0,0-1.39.63c-.54.16-.62.26-.24.29l-.51-1-.76-1.47a21.77,21.77,0,0,0-2-3.46c-.4-.51-1.17,0-1,.59Z"/><path d="M28.72,37a16,16,0,0,0,3.55,7.91c.58.67,1.47-.28.95-.95a20,20,0,0,1-3.77-7.16c-.13-.48-.81-.27-.73.2Z"/><path d="M35.57,49.44a5.31,5.31,0,0,0,1.43,1,.63.63,0,0,0,.64-1.09,5.42,5.42,0,0,0-1.59-.71.5.5,0,0,0-.48.83Z"/><path d="M13.21,52.33a12,12,0,0,0,3.48,4.5l1.14-1.47A22.44,22.44,0,0,1,14,52.15a1,1,0,0,0-1.52,1.17,7.19,7.19,0,0,0,3.74,3.26c.9.36,1.52-.94.91-1.55l-2-1.94a.91.91,0,0,0-1.29,1.29l1.93,2,.91-1.55a5.17,5.17,0,0,1-2.57-2.44l-1.52,1.17A23.36,23.36,0,0,0,16.88,57c.88.57,2-.81,1.14-1.47a15.39,15.39,0,0,1-2-1.8c-.6-.66-1.08-1.41-1.71-2a.67.67,0,0,0-1.12.65Z"/><path class="cls-1" d="M41.28,35.31c1.94-.49,2.95-2.25,4-3.93s2.54-3.78,2.58-5.85c0-2.91-3.43-5.16-5.26-2.77s1.35,5.29,3.76,5.17c4.59-.21,8.1-5.18,10.24-8.85.19-.34-.34-.71-.54-.37a24.6,24.6,0,0,1-4.28,5.65c-1.55,1.45-5.84,4.75-8.05,2.08-.73-.88-1-3.14,0-3.73S46.42,22.86,47,24c.76,1.63-.11,3.24-.77,4.58-1.11,2.25-2.52,5.63-5,6.36-.19.06-.12.4.09.34Z"/><path class="cls-1" d="M44.51,35.69a22.6,22.6,0,0,0,9.94-8.8c.27-.44-.4-.82-.69-.4a31.28,31.28,0,0,1-9.46,8.72c-.24.15-.08.6.21.48Z"/><path class="cls-1" d="M52.72,33.4c1.71-.55,3.42-1.1,5.12-1.68.38-.13.22-.74-.17-.61-1.7.58-3.39,1.19-5.08,1.8-.31.11-.18.6.13.49Z"/><path class="cls-1" d="M53.11,36.17c2.29-2.06,2.62,1.44,4,1.94a2.22,2.22,0,0,0,2-.47c.62-.41,1.24-1.25,2-1.39s1.57.58,2.19.77a2.11,2.11,0,0,0,2.4-.28c.44-.39-.2-1-.64-.64-.77.67-3-1-4.19-.72a3.32,3.32,0,0,0-1.06.58c-1.08.73-1,1.29-2.4.75-1.08-.43-1.32-1.66-2.47-1.91a2.32,2.32,0,0,0-2.21,1c-.27.27.13.66.41.41Z"/><path class="cls-1" d="M46.7,41.44c3.64-1.31,7.39,1.08,6.69,5.16-.09.54.71.78.84.23,1-4.32-3.77-8.41-7.7-5.78-.19.13-.07.48.17.39Z"/><path class="cls-1" d="M57.81,41.75c-2.63-.93-7.68.68-7.73,4A2.32,2.32,0,0,0,52,48.25a1.91,1.91,0,0,0,2.13-2c0-.6-1-.61-.93,0,0,1.12-1,1-1.49.71a1.38,1.38,0,0,1-.59-1.61,3.42,3.42,0,0,1,1.72-2,9,9,0,0,1,4.89-1.12.27.27,0,0,0,.08-.53Z"/><path class="cls-1" d="M60.94,22.66l-.07-.13a1.14,1.14,0,0,0-1.77-.23,1.15,1.15,0,0,0,.23,1.77l.12.08c.93.67,2-.6,1.49-1.49Z"/><path class="cls-1" d="M64.88,39.19a1.81,1.81,0,0,0,.1,2.52,1.36,1.36,0,0,0,1.34.36,2,2,0,0,0,1.3-1.26,1.7,1.7,0,0,0-.72-1.88,1.75,1.75,0,0,0-2.52,2,1.48,1.48,0,0,0,1,1,1.75,1.75,0,0,0,2.12-1.21,1.7,1.7,0,0,0-1.19-2.16,1.55,1.55,0,0,0-1.79.88,1.5,1.5,0,0,0,.62,1.89l-.45-1.62.54-.53.22-.1h.8l-.08,0,1,1,0-.1v.8l-.06.18-.54.54-.18.07h-.7L64.86,41l0,.09-.2-.75a1.5,1.5,0,0,1,0,.3l.2-.71-.06.09.5-.5-.08.06h1.39c.41.28.36.6.3.18a1.25,1.25,0,0,0-2.07-.54Z"/><path class="cls-1" d="M68.12,30.42a1.22,1.22,0,0,0,0-2.44,1.22,1.22,0,0,0,0,2.44Z"/></svg>