<svg xmlns="http://www.w3.org/2000/svg" viewBox="0 0 548.91 196.56">
  <defs>
    <style>
      .b5eada7a-36f4-4650-afeb-47c8a700d268, .e2fa8315-76cc-4e20-87f9-93e7efe3df8d {
        fill: #222222;
      }

      .e2fa8315-76cc-4e20-87f9-93e7efe3df8d {
        stroke: #222222;
        stroke-miterlimit: 10;
        stroke-width: 3px;
      }
    </style>
  </defs>
  <title>Asset 2white p2td</title>
  <g id="eb6fb0fc-9cc5-4533-9ccc-7cbd3021d468" data-name="Layer 2">
    <g id="b94bd72b-43db-439c-8c15-cd2645aab9e3" data-name="Layer 1">
      <g>
        <path class="b5eada7a-36f4-4650-afeb-47c8a700d268" d="M43.3,21.8a23.47,23.47,0,0,1,9,9.8,32.7,32.7,0,0,1,3.25,15,32.37,32.37,0,0,1-3.25,14.95,23.58,23.58,0,0,1-9,9.75,24.84,24.84,0,0,1-13,3.4,22.37,22.37,0,0,1-13.55-4A20.58,20.58,0,0,1,9.1,60v40H0V19.1H9.1v14a20.58,20.58,0,0,1,7.65-10.65A22.37,22.37,0,0,1,30.3,18.4,24.84,24.84,0,0,1,43.3,21.8ZM18.1,29A16.84,16.84,0,0,0,11.4,36,22.6,22.6,0,0,0,9,46.6a22.28,22.28,0,0,0,2.4,10.55,17.32,17.32,0,0,0,6.7,7.05,18.73,18.73,0,0,0,9.6,2.5q8.5,0,13.55-5.35t5-14.75q0-9.41-5-14.75T27.7,26.5A19.1,19.1,0,0,0,18.1,29Z"/>
        <path class="b5eada7a-36f4-4650-afeb-47c8a700d268" d="M103.45,22.4a20.87,20.87,0,0,1,7.75,10.7v-14h9.1V74h-9.1V60a20.87,20.87,0,0,1-7.75,10.7,22.54,22.54,0,0,1-13.55,4,24.84,24.84,0,0,1-13-3.4,23.58,23.58,0,0,1-9-9.75A32.37,32.37,0,0,1,64.7,46.6,32.7,32.7,0,0,1,68,31.6a23.47,23.47,0,0,1,9-9.8,24.84,24.84,0,0,1,13-3.4A22.54,22.54,0,0,1,103.45,22.4Zm-24.4,9.45Q74,37.21,74,46.6t5,14.75q5.06,5.35,13.45,5.35a18.63,18.63,0,0,0,9.65-2.5,17.47,17.47,0,0,0,6.65-7.05,22.28,22.28,0,0,0,2.4-10.55A22.6,22.6,0,0,0,108.8,36a17,17,0,0,0-6.65-7A19,19,0,0,0,92.5,26.5Q84.1,26.5,79.05,31.85Z"/>
        <path class="b5eada7a-36f4-4650-afeb-47c8a700d268" d="M143.9,0V74h-9.1V0Z"/>
        <path class="b5eada7a-36f4-4650-afeb-47c8a700d268" d="M241.45,24.35q5.85,6.15,5.85,17.75V74h-9.1V42.9q0-8.1-3.95-12.4T223.4,26.2A14.9,14.9,0,0,0,211.85,31q-4.35,4.75-4.35,14V74h-9.1V42.9q0-8.1-4-12.4t-10.8-4.3Q176.3,26.2,172,31t-4.35,14V74h-9.1V19.1h9.1V31.6a17.8,17.8,0,0,1,7.15-10,22.32,22.32,0,0,1,24,.1A19.36,19.36,0,0,1,206.1,32.2a19.8,19.8,0,0,1,7.7-10.35A21.29,21.29,0,0,1,226,18.2Q235.6,18.2,241.45,24.35Z"/>
      </g>
      <g>
        <path class="b5eada7a-36f4-4650-afeb-47c8a700d268" d="M386.52,67v8h-6.8q-8.4,0-12.55-4T363,57.56V28h-8.2v-7.9H363V6.36h9.2v13.7h14.2V28h-14.2v29.8c0,3.54.65,6,1.95,7.25S377.72,67,380.92,67Z"/>
        <path class="b5eada7a-36f4-4650-afeb-47c8a700d268" d="M414.62,22.31A23.46,23.46,0,0,1,427,19.16v9.9h-2.8q-7.71,0-12.6,3.95t-4.9,13.05V75h-9.1V20.06h9.1v11.1A20.17,20.17,0,0,1,414.62,22.31Z"/>
        <path class="b5eada7a-36f4-4650-afeb-47c8a700d268" d="M486.11,49.46h-43.9q.3,9.4,5.35,14.1a17.45,17.45,0,0,0,12.35,4.7,17.79,17.79,0,0,0,11-3.35A13.79,13.79,0,0,0,476.41,56h9.7a22.92,22.92,0,0,1-13.4,17.2,29.57,29.57,0,0,1-12.4,2.5,28.26,28.26,0,0,1-14-3.4,24,24,0,0,1-9.55-9.75,30.83,30.83,0,0,1-3.45-14.95,31.17,31.17,0,0,1,3.45-15,24.05,24.05,0,0,1,9.55-9.8,28.37,28.37,0,0,1,14-3.4,27.67,27.67,0,0,1,13.95,3.4,23.41,23.41,0,0,1,9.1,9.1,25.61,25.61,0,0,1,3.15,12.6A26.76,26.76,0,0,1,486.11,49.46Zm-10.8-14.6a14.64,14.64,0,0,0-6.3-6.1,19.18,19.18,0,0,0-8.7-2,18,18,0,0,0-12.6,4.65q-5.1,4.65-5.5,13.65h35.1A18.64,18.64,0,0,0,475.31,34.86Z"/>
        <path class="b5eada7a-36f4-4650-afeb-47c8a700d268" d="M548.51,49.46h-43.9q.3,9.4,5.35,14.1a17.45,17.45,0,0,0,12.35,4.7,17.79,17.79,0,0,0,11.05-3.35A13.79,13.79,0,0,0,538.81,56h9.7a22.92,22.92,0,0,1-13.4,17.2,29.57,29.57,0,0,1-12.4,2.5,28.26,28.26,0,0,1-14-3.4,24,24,0,0,1-9.55-9.75,30.83,30.83,0,0,1-3.45-14.95,31.17,31.17,0,0,1,3.45-15,24.05,24.05,0,0,1,9.55-9.8,28.37,28.37,0,0,1,14-3.4,27.67,27.67,0,0,1,13.95,3.4,23.41,23.41,0,0,1,9.1,9.1,25.61,25.61,0,0,1,3.15,12.6A26.76,26.76,0,0,1,548.51,49.46Zm-10.8-14.6a14.64,14.64,0,0,0-6.3-6.1,19.18,19.18,0,0,0-8.7-2,18,18,0,0,0-12.6,4.65q-5.1,4.65-5.5,13.65h35.1A18.64,18.64,0,0,0,537.71,34.86Z"/>
      </g>
      <g>
        <path class="b5eada7a-36f4-4650-afeb-47c8a700d268" d="M157.73,118.06a20.81,20.81,0,0,1,7.75,10.7V95.66h9.1v74h-9.1v-14a20.81,20.81,0,0,1-7.75,10.7,22.52,22.52,0,0,1-13.55,4,24.87,24.87,0,0,1-13-3.4,23.58,23.58,0,0,1-9-9.75,32.5,32.5,0,0,1-3.25-15,32.83,32.83,0,0,1,3.25-15,23.47,23.47,0,0,1,9-9.8,24.87,24.87,0,0,1,13-3.4A22.52,22.52,0,0,1,157.73,118.06Zm-24.4,9.45q-5,5.36-5.05,14.75T133.33,157q5.05,5.36,13.45,5.35a18.63,18.63,0,0,0,9.65-2.5,17.4,17.4,0,0,0,6.65-7.05,22.28,22.28,0,0,0,2.4-10.55,22.6,22.6,0,0,0-2.4-10.6,16.91,16.91,0,0,0-6.65-7,19,19,0,0,0-9.65-2.45Q138.38,122.16,133.33,127.51Z"/>
        <path class="b5eada7a-36f4-4650-afeb-47c8a700d268" d="M189.18,94.61a7.31,7.31,0,0,1,9,0,5.67,5.67,0,0,1,0,8.1,7.31,7.31,0,0,1-9,0,5.67,5.67,0,0,1,0-8.1Zm9,20.15v54.9h-9.1v-54.9Z"/>
        <path class="b5eada7a-36f4-4650-afeb-47c8a700d268" d="M248.83,118.06a20.81,20.81,0,0,1,7.75,10.7v-14h9.1v55.8a27.77,27.77,0,0,1-3.2,13.5,23,23,0,0,1-9,9.2,26.79,26.79,0,0,1-13.5,3.3q-11.1,0-18.1-5.35a23.68,23.68,0,0,1-8.9-14.45h9a15.66,15.66,0,0,0,6.05,8.65q4.46,3.15,11.45,3.15a16.8,16.8,0,0,0,12.25-4.75q4.86-4.76,4.85-13.25v-14.9a20.81,20.81,0,0,1-7.75,10.7,22.52,22.52,0,0,1-13.55,4,24.87,24.87,0,0,1-13-3.4,23.58,23.58,0,0,1-8.95-9.75,32.5,32.5,0,0,1-3.25-15,32.83,32.83,0,0,1,3.25-15,23.47,23.47,0,0,1,8.95-9.8,24.87,24.87,0,0,1,13-3.4A22.52,22.52,0,0,1,248.83,118.06Zm-24.4,9.45q-5,5.36-5.05,14.75T224.43,157q5.06,5.36,13.45,5.35a18.63,18.63,0,0,0,9.65-2.5,17.4,17.4,0,0,0,6.65-7.05,22.28,22.28,0,0,0,2.4-10.55,22.6,22.6,0,0,0-2.4-10.6,16.91,16.91,0,0,0-6.65-7,19,19,0,0,0-9.65-2.45Q229.48,122.16,224.43,127.51Z"/>
        <path class="b5eada7a-36f4-4650-afeb-47c8a700d268" d="M280.28,94.61a7.31,7.31,0,0,1,9,0,5.67,5.67,0,0,1,0,8.1,7.31,7.31,0,0,1-9,0,5.67,5.67,0,0,1,0-8.1Zm9,20.15v54.9h-9.1v-54.9Z"/>
        <path class="b5eada7a-36f4-4650-afeb-47c8a700d268" d="M330.08,161.66v8h-6.8q-8.4,0-12.55-4t-4.15-13.4v-29.6h-8.2v-7.9h8.2v-13.7h9.2v13.7H330v7.9h-14.2v29.8q0,5.29,2,7.25t6.75,1.95Z"/>
        <path class="b5eada7a-36f4-4650-afeb-47c8a700d268" d="M377.23,118.06a20.87,20.87,0,0,1,7.75,10.7v-14h9.1v54.9H385v-14a20.87,20.87,0,0,1-7.75,10.7,22.54,22.54,0,0,1-13.55,4,24.84,24.84,0,0,1-13-3.4,23.58,23.58,0,0,1-8.95-9.75,32.37,32.37,0,0,1-3.25-15,32.7,32.7,0,0,1,3.25-15,23.47,23.47,0,0,1,8.95-9.8,24.84,24.84,0,0,1,13-3.4A22.54,22.54,0,0,1,377.23,118.06Zm-24.4,9.45q-5.06,5.36-5.05,14.75T352.83,157q5.06,5.36,13.45,5.35a18.63,18.63,0,0,0,9.65-2.5,17.47,17.47,0,0,0,6.65-7.05,22.28,22.28,0,0,0,2.4-10.55,22.6,22.6,0,0,0-2.4-10.6,17,17,0,0,0-6.65-7,19,19,0,0,0-9.65-2.45Q357.88,122.16,352.83,127.51Z"/>
        <path class="b5eada7a-36f4-4650-afeb-47c8a700d268" d="M417.68,95.66v74h-9.1v-74Z"/>
      </g>
      <path class="e2fa8315-76cc-4e20-87f9-93e7efe3df8d" d="M536.73,138h-99.5"/>
      <path class="e2fa8315-76cc-4e20-87f9-93e7efe3df8d" d="M99.62,137.55H.12"/>
      <path class="b5eada7a-36f4-4650-afeb-47c8a700d268" d="M301.73,8.47A39.5,39.5,0,1,0,341.23,48,39.5,39.5,0,0,0,301.73,8.47Zm25.94,43.68c-6-6.44-15.21-11.44-15.21-11.44a14.88,14.88,0,0,1,1.32,11.46c-.75,2.73-1.83,2.34-2.41-.43-1.45-6.92-6.28-13.26-6.28-13.26-6.49,14.67-7.57,26.59-7.56,33,0,2.83-1.34,5.11-3.38,5.11s-4.14-2.25-4.41-5.06c-2.23-23.22,12.58-35,12.58-35-5.07-2.42-16.19.16-22.64,2-2.72.78-3.78-.53-1.75-2.5,8.51-8.23,22.15-5.26,22.15-5.26-1.2-3.2-7.27-6.64-11.66-8.78-2.54-1.24-2.42-2.63.41-2.72,13.23-.41,17.33,9.58,17.33,9.58,8.5-2.44,13.73-1.39,16.8.18,2.51,1.3,1.58,2.62-1.24,2.51A27.19,27.19,0,0,0,310,33.88c13.75,2.65,18.42,11.54,20,17.26C330.75,53.87,329.6,54.22,327.67,52.15Z"/>
    </g>
  </g>
</svg>
