<svg xmlns="http://www.w3.org/2000/svg" xmlns:xlink="http://www.w3.org/1999/xlink" viewBox="0 0 690.65 691.06">
  <defs>
    <style>
      .bf9667cd-9546-42d6-862c-786e2db7e26e {
        opacity: 0.27;
        fill: url(#f136e3f7-bea6-4b94-abf5-f58e5be0537e);
      }

      .afee82eb-2c3f-44ac-94ff-aa8d6380b07f, .b1f6223e-7f9b-4fdd-bba4-8ce0e8458704, .ea1cea09-9bc9-4d80-b423-b0aa2af2f6bb {
        opacity: 0.25;
      }

      .afee82eb-2c3f-44ac-94ff-aa8d6380b07f {
        fill: url(#edf69506-1136-4196-bf13-3a12ff5b61c5);
      }

      .f0fec481-6a6c-409c-a203-8849217d7093 {
        fill: url(#b042eb41-2c89-490f-8aab-ddf5933fe3a5);
      }

      .a7cbaca3-25bf-4aa7-8c30-c950e914eb9f {
        fill: #c5f0d7;
      }

      .acd0dbdd-e41d-443b-8ef0-3e040e90f22c {
        fill: #3dcc78;
      }

      .b1f6223e-7f9b-4fdd-bba4-8ce0e8458704 {
        fill: url(#bfc00d0a-18d4-473b-9062-cd73568275db);
      }

      .ea1cea09-9bc9-4d80-b423-b0aa2af2f6bb {
        fill: url(#a7bd4f82-f5ed-4602-8b9a-8c428fcd5a14);
      }

      .fb62e252-c949-47f6-af85-e7636c7e8c07 {
        fill: url(#bdaf9f87-65a3-4aad-be6f-a1fb12d5cd1b);
      }

      .b1c256ab-6692-4336-9979-fa7b8e992cab {
        fill: #fff;
      }

      .a4fce5fe-991f-4bdb-902c-0b83f471d5e7, .a9e37a99-a169-4076-925d-c8a8a41f05db, .b1c256ab-6692-4336-9979-fa7b8e992cab, .bd69ff98-35f4-4a4c-b34c-ad68fcf311b1, .e237b041-ab96-456f-ade0-008824a74920 {
        opacity: 0.31;
      }

      .a4fce5fe-991f-4bdb-902c-0b83f471d5e7 {
        fill: url(#f7560611-b073-423b-ba61-f9276fa3c417);
      }

      .b68c787f-d251-4878-b05f-51bc3dea71a8, .fc428035-92d9-4483-b824-383b8e010338 {
        opacity: 0.4;
      }

      .fc428035-92d9-4483-b824-383b8e010338 {
        fill: url(#ad749986-2662-4d99-a85c-1aeceec05a3d);
      }

      .b68c787f-d251-4878-b05f-51bc3dea71a8 {
        fill: url(#eca69f89-b283-4c5d-9109-ecbc271904cd);
      }

      .ef2526a9-676b-44a8-807a-07175291a903 {
        fill: #222;
      }

      .a0ade873-e553-41b4-b7d7-8b3786093035 {
        fill: url(#f781d12a-babf-4dd2-9956-5766545464cf);
      }

      .a473d980-b320-49e2-b44a-702be48044c8 {
        fill: #1c3024;
      }

      .e237b041-ab96-456f-ade0-008824a74920 {
        fill: url(#e244b463-000f-4569-9ca2-236d9be93e10);
      }

      .a9e37a99-a169-4076-925d-c8a8a41f05db {
        fill: url(#a8ed3d6c-314a-48cc-9d5f-f9dac3f8d1f7);
      }

      .bd69ff98-35f4-4a4c-b34c-ad68fcf311b1 {
        fill: url(#faf2f8a6-ae8c-4b62-afef-29d6bda8685a);
      }

      .b16f7f88-4b60-42dd-ab6b-830d9aaf5750 {
        fill: #f8ecdb;
      }

      .bf83c6b0-13a6-4829-9535-7a866fc57622 {
        fill: #101612;
      }

      .fb840574-8a37-4b41-a207-0f73d669db4b {
        fill: url(#b670c190-9c1c-40a1-ac64-bcc954e40bee);
      }
    </style>
    <linearGradient id="f136e3f7-bea6-4b94-abf5-f58e5be0537e" data-name="Áåçûìÿííûé ãðàäèåíò 6" x1="559.35" y1="666.69" x2="811.79" y2="666.69" gradientTransform="matrix(0, 1, -0.7, 0, 1034.46, -33.37)" gradientUnits="userSpaceOnUse">
      <stop offset="0.27" stop-color="#3dcc78"/>
      <stop offset="0.44" stop-color="#5bb580"/>
      <stop offset="0.67" stop-color="#80998a"/>
      <stop offset="0.8" stop-color="#8e8e8e"/>
      <stop offset="1" stop-color="#fff"/>
    </linearGradient>
    <linearGradient id="edf69506-1136-4196-bf13-3a12ff5b61c5" data-name="Áåçûìÿííûé ãðàäèåíò 5" x1="329.14" y1="1883.78" x2="545.41" y2="2041.14" gradientTransform="matrix(0.88, -0.75, 0.02, 1.12, -221.34, -1398.98)" gradientUnits="userSpaceOnUse">
      <stop offset="0.13" stop-color="#3dcc78"/>
      <stop offset="0.14" stop-color="#3dcb78"/>
      <stop offset="0.36" stop-color="#338f59"/>
      <stop offset="0.57" stop-color="#2c6041"/>
      <stop offset="0.75" stop-color="#263e30"/>
      <stop offset="0.9" stop-color="#232a26"/>
      <stop offset="1" stop-color="#222"/>
    </linearGradient>
    <linearGradient id="b042eb41-2c89-490f-8aab-ddf5933fe3a5" x1="354.09" y1="1914.25" x2="570.36" y2="2071.62" xlink:href="#edf69506-1136-4196-bf13-3a12ff5b61c5"/>
    <linearGradient id="bfc00d0a-18d4-473b-9062-cd73568275db" x1="507.21" y1="1317.39" x2="507.21" y2="1671.73" gradientTransform="matrix(0.88, -0.75, 0.02, 1.12, -179.54, -1135.11)" xlink:href="#edf69506-1136-4196-bf13-3a12ff5b61c5"/>
    <linearGradient id="a7bd4f82-f5ed-4602-8b9a-8c428fcd5a14" x1="527.95" y1="1343.39" x2="527.95" y2="1697.73" gradientTransform="matrix(0.88, -0.75, 0.02, 1.12, -179.54, -1135.11)" xlink:href="#edf69506-1136-4196-bf13-3a12ff5b61c5"/>
    <linearGradient id="bdaf9f87-65a3-4aad-be6f-a1fb12d5cd1b" x1="553.95" y1="1371.17" x2="553.95" y2="1725.51" gradientTransform="matrix(0.88, -0.75, 0.02, 1.12, -179.54, -1135.11)" xlink:href="#edf69506-1136-4196-bf13-3a12ff5b61c5"/>
    <linearGradient id="f7560611-b073-423b-ba61-f9276fa3c417" x1="306.09" y1="329.6" x2="418.63" y2="329.6" gradientTransform="translate(461.88 -150.02) rotate(59.43)" xlink:href="#edf69506-1136-4196-bf13-3a12ff5b61c5"/>
    <linearGradient id="ad749986-2662-4d99-a85c-1aeceec05a3d" x1="325.13" y1="329.6" x2="399.59" y2="329.6" gradientTransform="translate(461.88 -150.02) rotate(59.43)" xlink:href="#edf69506-1136-4196-bf13-3a12ff5b61c5"/>
    <linearGradient id="eca69f89-b283-4c5d-9109-ecbc271904cd" x1="344.65" y1="329.6" x2="380.07" y2="329.6" gradientTransform="translate(461.88 -150.02) rotate(59.43)" xlink:href="#edf69506-1136-4196-bf13-3a12ff5b61c5"/>
    <linearGradient id="f781d12a-babf-4dd2-9956-5766545464cf" data-name="Áåçûìÿííûé ãðàäèåíò 3" x1="177.45" y1="931.13" x2="205.18" y2="975.74" gradientTransform="matrix(0.94, -0.37, 0.01, 1.06, -107.11, -677.41)" gradientUnits="userSpaceOnUse">
      <stop offset="0" stop-color="#3dcc78"/>
      <stop offset="1" stop-color="#222"/>
    </linearGradient>
    <linearGradient id="e244b463-000f-4569-9ca2-236d9be93e10" x1="36.48" y1="357.3" x2="125.93" y2="357.3" gradientTransform="matrix(1, 0, 0, 1, 0, 0)" xlink:href="#edf69506-1136-4196-bf13-3a12ff5b61c5"/>
    <linearGradient id="a8ed3d6c-314a-48cc-9d5f-f9dac3f8d1f7" x1="36.46" y1="378" x2="107.14" y2="378" gradientTransform="matrix(1, 0, 0, 1, 0, 0)" xlink:href="#edf69506-1136-4196-bf13-3a12ff5b61c5"/>
    <linearGradient id="faf2f8a6-ae8c-4b62-afef-29d6bda8685a" x1="36.29" y1="398.88" x2="88.18" y2="398.88" gradientTransform="matrix(1, 0, 0, 1, 0, 0)" xlink:href="#edf69506-1136-4196-bf13-3a12ff5b61c5"/>
    <linearGradient id="b670c190-9c1c-40a1-ac64-bcc954e40bee" x1="465.17" y1="312.48" x2="570.67" y2="312.48" gradientTransform="matrix(1, 0, 0, 1, 0, 0)" xlink:href="#edf69506-1136-4196-bf13-3a12ff5b61c5"/>
  </defs>
  <title>Asset 2money</title>
  <g id="ae370d42-129f-4f95-9d44-2143a3c283fe" data-name="Layer 2">
    <g id="b8b80ef6-1824-4de0-946d-5f91990b4202" data-name="Ñëîé 1">
      <g>
        <ellipse class="bf9667cd-9546-42d6-862c-786e2db7e26e" cx="566.42" cy="652.19" rx="31.78" ry="126.22" transform="translate(-178.48 1089.58) rotate(-79.45)"/>
        <g>
          <path class="afee82eb-2c3f-44ac-94ff-aa8d6380b07f" d="M259.65,511.9,112.39,570.52c-5.19,2.07-9.44-1-9.49-6.84l-1.12-126c0-5.85,4.12-12.26,9.31-14.33l147.26-58.62c5.19-2.07,9.44,1,9.49,6.84l1.12,126C269,503.42,264.84,509.83,259.65,511.9Z"/>
          <path class="f0fec481-6a6c-409c-a203-8849217d7093" d="M282.22,527.3,135,585.92c-5.19,2.07-9.44-1-9.49-6.84l-1.12-126c0-5.84,4.11-12.25,9.3-14.32l147.26-58.62c5.19-2.07,9.44,1,9.5,6.84l1.11,126C291.57,518.82,287.41,525.23,282.22,527.3Z"/>
          <path class="a7cbaca3-25bf-4aa7-8c30-c950e914eb9f" d="M202.59,465.93a44.11,44.11,0,0,1-1.48,9l-27.5.12L179.29,505a34,34,0,0,1-7.55,3.49c-16,5-28.1-5.87-27.07-24.35s14.82-37.52,30.82-42.54S203.62,447.45,202.59,465.93Z"/>
          <path class="acd0dbdd-e41d-443b-8ef0-3e040e90f22c" d="M180.62,481.32l5.68,29.94a6,6,0,0,0,.65-.42c9.64-6.14,17.58-17.06,20.94-28.85.1-.25.15-.52.23-.8Z"/>
          <path class="a7cbaca3-25bf-4aa7-8c30-c950e914eb9f" d="M272,428.34l-51.25,20.07c-1.56.61-2.83-.32-2.83-2.08h0a4.89,4.89,0,0,1,2.81-4.3L272,422c1.56-.61,2.83.32,2.83,2.08h0A4.89,4.89,0,0,1,272,428.34Z"/>
          <path class="a7cbaca3-25bf-4aa7-8c30-c950e914eb9f" d="M272,439.18l-39.3,15.39c-1.56.61-2.83-.32-2.84-2.08h0a4.9,4.9,0,0,1,2.82-4.29L272,432.8c1.56-.61,2.83.33,2.84,2.09h0A4.9,4.9,0,0,1,272,439.18Z"/>
          <path class="a7cbaca3-25bf-4aa7-8c30-c950e914eb9f" d="M272.06,450l-46.69,18.29c-1.56.61-2.83-.32-2.84-2.08h0a4.9,4.9,0,0,1,2.81-4.3L272,443.65c1.56-.61,2.83.32,2.84,2.08h0A4.9,4.9,0,0,1,272.06,450Z"/>
          <path class="acd0dbdd-e41d-443b-8ef0-3e040e90f22c" d="M216.55,498.81h0a8.43,8.43,0,0,0-4.84,7.41l.19,32.48,9.75-3.84-.19-32.48C221.44,499.35,219.25,497.74,216.55,498.81Z"/>
          <path class="acd0dbdd-e41d-443b-8ef0-3e040e90f22c" d="M234.11,502.47h0a8.44,8.44,0,0,0-4.85,7.42l.13,21.92,9.75-3.84L239,506.05C239,503,236.8,501.41,234.11,502.47Z"/>
          <path class="acd0dbdd-e41d-443b-8ef0-3e040e90f22c" d="M251.52,482.21h0a8.46,8.46,0,0,0-4.84,7.42l.2,35.28,9.75-3.84-.2-35.28C256.41,482.75,254.21,481.15,251.52,482.21Z"/>
        </g>
        <g>
          <path class="b1f6223e-7f9b-4fdd-bba4-8ce0e8458704" d="M436.64,228.58,157,339.88c-6.91,2.76-12.57-1.32-12.64-9.11l-1.77-199.53c-.07-7.78,5.48-16.33,12.39-19.08L434.62.86c6.92-2.75,12.58,1.33,12.64,9.11L449,209.5C449.1,217.29,443.56,225.83,436.64,228.58Z"/>
          <path class="ea1cea09-9bc9-4d80-b423-b0aa2af2f6bb" d="M455.41,242.13l-279.6,111.3c-6.91,2.75-12.57-1.33-12.64-9.11L161.4,144.79c-.07-7.79,5.48-16.33,12.39-19.08l279.6-111.3c6.92-2.75,12.58,1.33,12.65,9.11l1.76,199.53C467.87,230.83,462.33,239.38,455.41,242.13Z"/>
          <path class="fb62e252-c949-47f6-af85-e7636c7e8c07" d="M478.86,253.74,199.25,365c-6.91,2.75-12.57-1.33-12.64-9.11L184.84,156.4c-.07-7.79,5.48-16.33,12.39-19.08L476.84,26c6.91-2.75,12.57,1.33,12.64,9.12l1.77,199.53C491.32,242.44,485.77,251,478.86,253.74Z"/>
          <path class="b1c256ab-6692-4336-9979-fa7b8e992cab" d="M324,156.89l-99.57,39.64c-1.6.63-2.9-.31-2.92-2.1l-.1-11.5a5,5,0,0,1,2.86-4.4l99.57-39.64c1.6-.64,2.9.3,2.92,2.1l.1,11.5A5,5,0,0,1,324,156.89Z"/>
          <path class="acd0dbdd-e41d-443b-8ef0-3e040e90f22c" d="M292.78,201.38l-67.87,27c-1.71.68-3.1-.33-3.12-2.24l-.08-8.85a5.35,5.35,0,0,1,3.06-4.7l67.87-27c1.7-.68,3.1.33,3.11,2.25l.08,8.84A5.33,5.33,0,0,1,292.78,201.38Z"/>
          <path class="a7cbaca3-25bf-4aa7-8c30-c950e914eb9f" d="M200.52,308.19l-2.74-.45a100.68,100.68,0,0,1,13.38-36.28c7.37-11.9,17.32-21.33,27.29-25.89,12.49-5.7,23.95-3.77,35.05-1.91,9.09,1.53,18.5,3.11,28.38.37,16.35-4.54,34.35-21.61,47-44.54,11.56-21,17.8-43.54,23.84-65.38l2.67.74c-6.08,22-12.37,44.72-24.08,66-10.17,18.47-28.3,40.22-48.67,45.87-10.48,2.91-20.19,1.28-29.58-.3-11.17-1.88-21.73-3.65-33.44,1.7-9.48,4.33-19,13.38-26.08,24.82A97.94,97.94,0,0,0,200.52,308.19Z"/>
          <path class="a7cbaca3-25bf-4aa7-8c30-c950e914eb9f" d="M419.79,149.25c13.82-5.51,24.91-22.58,24.77-38.14s-11.45-23.72-25.27-18.22S394.38,115.46,394.52,131l9.42-3.75c-.08-9.7,6.83-20.35,15.44-23.78s15.67,1.67,15.76,11.36-6.84,20.34-15.44,23.77Z"/>
          <path class="acd0dbdd-e41d-443b-8ef0-3e040e90f22c" d="M419.7,138.63c-8.62,3.43-15.67-1.65-15.76-11.35L394.52,131c.13,15.56,11.45,23.72,25.27,18.22Z"/>
          <path class="b1c256ab-6692-4336-9979-fa7b8e992cab" d="M467.76,188.05a9.25,9.25,0,0,0-4.79,4l-36.22-7.57a8.07,8.07,0,0,0,.14-1.1c.22-3.82-2.29-6.08-5.61-5s-6.17,5-6.39,8.82v.18L373.67,214a4,4,0,0,0-4.91-1.69c-3.31,1-6.17,5-6.39,8.82s2.3,6.08,5.62,5.05,6.17-5,6.38-8.82c0-.06,0-.12,0-.18l41.21-26.63a4,4,0,0,0,4.91,1.69,9.27,9.27,0,0,0,4.8-4l36.21,7.56a8.49,8.49,0,0,0-.14,1.1c-.22,3.83,2.3,6.09,5.61,5s6.17-5,6.39-8.81S471.07,187,467.76,188.05Z"/>
          <path class="a7cbaca3-25bf-4aa7-8c30-c950e914eb9f" d="M276.26,278l-8.16,3.25-.08-9.18a1.37,1.37,0,0,0-2-1.43l-10.11,4a3.39,3.39,0,0,0-1.94,3l.08,9.18-7.83,3.12a3.39,3.39,0,0,0-1.94,3l.11,11.39a1.37,1.37,0,0,0,2,1.42l7.83-3.12.08,8.82a1.37,1.37,0,0,0,2,1.42l10.12-4a3.39,3.39,0,0,0,1.93-3l-.08-8.82,8.16-3.24a3.41,3.41,0,0,0,1.94-3l-.1-11.38A1.38,1.38,0,0,0,276.26,278Z"/>
        </g>
        <g>
          <ellipse class="a4fce5fe-991f-4bdb-902c-0b83f471d5e7" cx="362.36" cy="329.6" rx="72.38" ry="49.42" transform="translate(-105.72 473.98) rotate(-59.43)"/>
          <ellipse class="fc428035-92d9-4483-b824-383b8e010338" cx="362.36" cy="329.6" rx="47.9" ry="32.71" transform="translate(-105.72 473.99) rotate(-59.43)"/>
          <ellipse class="b68c787f-d251-4878-b05f-51bc3dea71a8" cx="362.36" cy="329.6" rx="22.79" ry="15.56" transform="translate(-105.72 473.98) rotate(-59.43)"/>
        </g>
        <g>
          <polygon class="acd0dbdd-e41d-443b-8ef0-3e040e90f22c" points="331.72 472.58 328.89 470.96 353.83 428.15 390.6 431.35 442.03 366.95 444.29 369.41 391.14 435.95 354.9 432.79 331.72 472.58"/>
          <path class="ef2526a9-676b-44a8-807a-07175291a903" d="M334.5,470.55c0-2.61-1.92-4-4.24-3.05a7.27,7.27,0,0,0-4.15,6.39c0,2.61,1.92,4,4.23,3.05A7.26,7.26,0,0,0,334.5,470.55Z"/>
          <path class="ef2526a9-676b-44a8-807a-07175291a903" d="M358.22,429.08c0-2.61-1.92-4-4.23-3.06a7.28,7.28,0,0,0-4.16,6.39c0,2.61,1.92,4,4.24,3.06A7.26,7.26,0,0,0,358.22,429.08Z"/>
          <path class="ef2526a9-676b-44a8-807a-07175291a903" d="M395.11,431.82c0-2.61-1.92-4-4.24-3.05a7.27,7.27,0,0,0-4.15,6.39c0,2.6,1.92,4,4.24,3A7.27,7.27,0,0,0,395.11,431.82Z"/>
          <path class="ef2526a9-676b-44a8-807a-07175291a903" d="M447.19,366.82c0-2.61-1.92-4-4.24-3.05a7.27,7.27,0,0,0-4.15,6.39c0,2.61,1.92,4,4.24,3A7.27,7.27,0,0,0,447.19,366.82Z"/>
        </g>
        <g>
          <path class="a0ade873-e553-41b4-b7d7-8b3786093035" d="M18.89,347.18l-3.15-.67a173.1,173.1,0,0,1,18.32-47.93c6-10.61,11.54-17,17.56-20,7.28-3.65,13.72-1.73,19.94.12,6,1.78,11.58,3.45,17.8.18s12-11,17.11-23.07c5.54-12.94,9.51-26.5,13.36-39.6,5-17.07,10.19-34.72,18.88-51.25l2.84,1.49c-8.54,16.25-13.67,33.75-18.63,50.66-3.88,13.2-7.88,26.85-13.49,40-5.52,12.91-11.6,21-18.57,24.64-7.38,3.89-13.91,1.95-20.22.07-5.88-1.76-11.43-3.41-17.58-.33-7.12,3.56-12.65,12.36-16.19,18.66A169.76,169.76,0,0,0,18.89,347.18Z"/>
          <path class="a473d980-b320-49e2-b44a-702be48044c8" d="M1.28,331.92l-1.28-1c10.14-13.27,23.46-19.59,32.85-22.55,8.26-2.61,16.46-3.7,24.38-4.76,3.12-.42,6.35-.85,9.52-1.36,9.59-1.56,22.07-4.42,33.7-12.78,7.83-5.62,14.9-13.45,21.73-21,2.35-2.6,4.79-5.3,7.22-7.87,12.32-13,22.76-19.86,31.91-20.9l.18,1.59c-8.76,1-18.87,7.68-30.92,20.41-2.42,2.56-4.85,5.25-7.2,7.85-6.89,7.63-14,15.53-22,21.25-11.9,8.55-24.62,11.47-34.38,13.06-3.2.52-6.43.95-9.56,1.37-7.86,1-16,2.13-24.11,4.69C24.17,312.82,11.16,319,1.28,331.92Z"/>
          <g>
            <path class="e237b041-ab96-456f-ade0-008824a74920" d="M40.91,377.87l80.58-31.09a7.7,7.7,0,0,0,4.44-6.74h0c0-2.77-2-4.25-4.43-3.3L40.92,367.83a7.68,7.68,0,0,0-4.44,6.73h0C36.47,377.34,38.46,378.82,40.91,377.87Z"/>
            <path class="a9e37a99-a169-4076-925d-c8a8a41f05db" d="M40.9,395l61.79-23.85a7.7,7.7,0,0,0,4.45-6.73h0c0-2.77-2-4.25-4.44-3.31L40.91,384.91a7.7,7.7,0,0,0-4.45,6.73h0C36.46,394.41,38.45,395.89,40.9,395Z"/>
            <path class="bd69ff98-35f4-4a4c-b34c-ad68fcf311b1" d="M40.73,412.2l43-16.59a7.71,7.71,0,0,0,4.45-6.74h0c0-2.77-2-4.25-4.44-3.3l-43,16.59a7.68,7.68,0,0,0-4.45,6.74h0C36.29,411.67,38.28,413.15,40.73,412.2Z"/>
          </g>
        </g>
        <path class="b16f7f88-4b60-42dd-ab6b-830d9aaf5750" d="M451.56,292.53a10,10,0,0,1-4.6,1.7c-2.35.07-4.4-1.46-6.25-2.91l-32-25.12a20.74,20.74,0,0,0-2.54-2.31,44,44,0,0,1-4.17-4.46c-1.76-2.16-3.26-5.54-5.29-7.45s-7.23-3.22-9.83-3.31a.31.31,0,0,0-.26.47c.88,1.43,5.73,3.32,5.74,5,0,1.26-3.7-.53-4.15,2.23-.15.94-1.38,5.8-.85,6.58,2.76,4.07,9.76,6.32,13,10.53.84,1.77,3.62,5.2,4.82,6.77,10.09,13.29,20,24,34.06,33,2.84,1.82,6,3.55,9.36,3.46,2.58-.07,5-1.18,7.32-2.3q19.47-9.34,37.95-20.58c-3.36-6.17-7.51-16.76-10.83-22.73A254.4,254.4,0,0,1,451.56,292.53Z"/>
        <path class="b16f7f88-4b60-42dd-ab6b-830d9aaf5750" d="M486.46,268.25l1.34-.91A7.74,7.74,0,0,0,486.46,268.25Z"/>
        <path class="b16f7f88-4b60-42dd-ab6b-830d9aaf5750" d="M517.24,223.22c-3.71-6.46-12.06-9.05-16.08-15.29,0,.66,0,1.31,0,2,0,6.51,1.12,13.25,4.81,18.61a16.83,16.83,0,0,0,13,7.51C519.63,231.62,519.43,227,517.24,223.22Z"/>
        <path class="b16f7f88-4b60-42dd-ab6b-830d9aaf5750" d="M516.32,230.91a31,31,0,0,1,2.52,19.78A120.51,120.51,0,0,1,538.63,254a60.48,60.48,0,0,1-3.7-23.15C528.84,230.75,522.42,231,516.32,230.91Z"/>
        <path class="b16f7f88-4b60-42dd-ab6b-830d9aaf5750" d="M526.51,236.35A15,15,0,0,0,537,229.28a3,3,0,0,0,.48-2.22,3,3,0,0,0-1.23-1.49,16.88,16.88,0,0,0-8.32-3.06,27.55,27.55,0,0,0-8.9.71,9.18,9.18,0,0,0-4.08,1.76,7.21,7.21,0,0,0-2.11,4c-.36,1.66-.53,5,1.2,6a14.62,14.62,0,0,0,3.87,1.13,24.61,24.61,0,0,0,4,.55A20.23,20.23,0,0,0,526.51,236.35Z"/>
        <path class="a473d980-b320-49e2-b44a-702be48044c8" d="M501.59,209.08c2.91,5.61,7.5,10.14,12,14.56,3.43,3.35,8.31,13,8.31,13a29.47,29.47,0,0,0,5.54-.47c9.33-1.59,15.89-9.84,19.19-18.24,3.16-8,3.71-17.34,0-25.11s-11.85-13.52-20.47-13.6c-5.62-.05-11,2.14-16.42,3.48a11.93,11.93,0,0,1-6,.31c-1.94-.54-3.7-2.24-3.67-4.26a25.78,25.78,0,0,0-4.13,15.11C496.27,199.44,499,204.07,501.59,209.08Z"/>
        <path class="b16f7f88-4b60-42dd-ab6b-830d9aaf5750" d="M512.49,216.85a2.7,2.7,0,0,1,3.09,1,3.42,3.42,0,0,1-.12,3.86c-.59.66-1.44,2.12-2.21,2.16s-1.78-1.35-2.56-1.84-1.78-1.78-1-3A5.77,5.77,0,0,1,512.49,216.85Z"/>
        <g>
          <path class="bf83c6b0-13a6-4829-9535-7a866fc57622" d="M583.54,610.6a304.84,304.84,0,0,1-7.79-53.34c-1.17-22.88-1.08-37.75-1.33-62.12-.21-20.48.7-48.92,1.08-69.4.47-25.31-3-41.59-5.32-55.33a157,157,0,0,1-16.48,2.38c.94,18.52,2.16,41.61-1.88,56.89-5.65,21.4-10.65,42.44-15.58,63.48,8.52,40.76,21,82.48,32,121.9C572.53,613.35,579.29,612.31,583.54,610.6Z"/>
          <path class="a473d980-b320-49e2-b44a-702be48044c8" d="M553.7,372.79c-16.66,1.55-31.88.64-50.28,2,0-.1,0-.21,0-.32-12.42,84.41-8.53,213.6-15,248.41,1.53,1.7,4.59,4.33,13.13,3.1,14.69-46.51,24.54-89.71,34.66-132.87,4.93-21,9.93-42.08,15.58-63.48C555.86,414.4,554.64,391.31,553.7,372.79Z"/>
          <path class="fb840574-8a37-4b41-a207-0f73d669db4b" d="M553.7,372.79a157,157,0,0,0,16.48-2.38l.37-.07c-.27.06.11-37.17.12-40.72a307.78,307.78,0,0,0-1.9-32,102.28,102.28,0,0,0-2.93-14.14c-1.13-4.53-2.56-9.62-5.19-13.41-6-8.7-11.43-13.92-22.48-18.42-3.23-1.32-7.14-1.45-11.38-1.56h0a60.26,60.26,0,0,0-11.19.82c-10.76,1.76-20.18,7.64-29.41,13.1a96,96,0,0,0-9.64,6.85c-3.72,2.86-7.53,5.62-11.33,8.39,0,0,1.29,3.45,1.86,4.76q5.14,12,10.31,23.93c2-1.13,16-8.72,17.59-9.75,2.38,25.37,7.82,51.17,8.48,76.3,0,.11,0,.22,0,.32C521.82,373.43,537,374.34,553.7,372.79Z"/>
        </g>
        <path class="ef2526a9-676b-44a8-807a-07175291a903" d="M585.56,613.35a9.26,9.26,0,0,0-1.79-2.74c-4.24,1.7-11,2.74-15.2,4.44a15,15,0,0,1-4.67,3.5,5,5,0,0,0-1.55.85,3.33,3.33,0,0,0-.76,3.27,10,10,0,0,0,1.64,3.1,22,22,0,0,0,14-3.89,12.3,12.3,0,0,0,2.09-2.11s1.72,1.06,5.34-1.39C586.14,617.36,586.23,615.05,585.56,613.35Z"/>
        <path class="ef2526a9-676b-44a8-807a-07175291a903" d="M488.7,622.93a1.3,1.3,0,0,0,0-.21c-2.58,0-5.27-1.06-7.74-1.56a5,5,0,0,0-1.76-.16,3.35,3.35,0,0,0-2.46,2.28,9.79,9.79,0,0,0-.36,3.5,22.1,22.1,0,0,0,13.75,4.57,12,12,0,0,0,2.92-.59s.83,1.84,5.2,1.83c1.82,0,3.19-1.87,3.58-3.65a9.34,9.34,0,0,0,.06-3.21l-.1.3C493.29,627.26,490.23,624.63,488.7,622.93Z"/>
      </g>
    </g>
  </g>
</svg>
