<svg xmlns="http://www.w3.org/2000/svg" viewBox="0 0 119.84 105.55">
  <defs>
    <style>
      .e2dad005-d42b-4c20-b3e2-0acb9708954e {
        fill: #59b574;
      }

      .b09e2dd0-c609-4496-9eea-87a7066912f9 {
        fill: #212121;
      }
    </style>
  </defs>
  <title>Asset 1laptop svg</title>
  <g id="e9cea50f-6ccb-4c3c-b45f-2202aa2d3707" data-name="Layer 2">
    <g id="ea1d3bb1-5f0b-4015-aac6-7cad1404679c" data-name="Layer 1">
      <g id="a83facc4-4df9-4874-a105-d3a5ab23a6e6" data-name="Laptop">
        <g>
          <path class="e2dad005-d42b-4c20-b3e2-0acb9708954e" d="M38.9,70.11H29.82a2,2,0,0,1-2-2V50a2,2,0,0,1,2-2H38.9a2,2,0,0,1,2,2V68.11A2,2,0,0,1,38.9,70.11Zm-7.08-4H36.9V52H31.82Z"/>
          <path class="e2dad005-d42b-4c20-b3e2-0acb9708954e" d="M54.88,70.11H45.8a2,2,0,0,1-2-2V42.9a2,2,0,0,1,2-2h9.08a2,2,0,0,1,2,2V68.11A2,2,0,0,1,54.88,70.11Zm-7.08-4h5.08V44.9H47.8Z"/>
          <path class="e2dad005-d42b-4c20-b3e2-0acb9708954e" d="M70.86,70.11H61.78a2,2,0,0,1-2-2V32.48a2,2,0,0,1,2-2h9.08a2,2,0,0,1,2,2V68.11A2,2,0,0,1,70.86,70.11Zm-7.08-4h5.08V34.48H63.78Z"/>
          <path class="e2dad005-d42b-4c20-b3e2-0acb9708954e" d="M86.84,70.11H77.76a2,2,0,0,1-2-2V21.71a2,2,0,0,1,2-2h9.08a2,2,0,0,1,2,2v46.4A2,2,0,0,1,86.84,70.11Zm-7.08-4h5.08V23.71H79.76Z"/>
          <path class="e2dad005-d42b-4c20-b3e2-0acb9708954e" d="M28.6,42.4A2,2,0,0,1,28,38.51c.34-.12,33.83-11.77,45-33A2,2,0,1,1,76.49,7.4C64.58,30,30.68,41.8,29.24,42.29A1.8,1.8,0,0,1,28.6,42.4Z"/>
          <path class="e2dad005-d42b-4c20-b3e2-0acb9708954e" d="M77.08,16.71H77a2,2,0,0,1-1.88-2.11l.52-9.31L66.84,9.54a2,2,0,0,1-1.75-3.6L76.93.2A2,2,0,0,1,79.8,2.11l-.72,12.71A2,2,0,0,1,77.08,16.71Z"/>
        </g>
        <g>
          <path class="b09e2dd0-c609-4496-9eea-87a7066912f9" d="M105.38,87.79H12.78A9.85,9.85,0,0,1,2.94,78V24.19a9.85,9.85,0,0,1,9.84-9.84H55.49a2,2,0,0,1,0,4H12.78a5.85,5.85,0,0,0-5.84,5.84V78a5.85,5.85,0,0,0,5.84,5.84h92.6A5.84,5.84,0,0,0,111.21,78V24.19a5.85,5.85,0,0,0-5.84-5.84H94.46a2,2,0,1,1,0-4h10.91a9.85,9.85,0,0,1,9.84,9.84V78A9.85,9.85,0,0,1,105.38,87.79Z"/>
          <path class="b09e2dd0-c609-4496-9eea-87a7066912f9" d="M112.11,105.55H7.73C3,105.55,0,98.13,0,93a2,2,0,0,1,2-2H45.93a3.89,3.89,0,0,1,4,3.1h20a3.89,3.89,0,0,1,4-3.1h43.94a2,2,0,0,1,2,2C119.84,98.13,116.83,105.55,112.11,105.55ZM4.17,95c.58,3.45,2.47,6.54,3.56,6.54H112.11c1.09,0,3-3.09,3.56-6.54H73.83a3.88,3.88,0,0,1-4,3.1H50A3.88,3.88,0,0,1,46,95H4.17Z"/>
        </g>
        <path class="b09e2dd0-c609-4496-9eea-87a7066912f9" d="M104.8,79.38H13.35a2,2,0,0,1-2-2V24.76a2,2,0,0,1,2-2H43.14a2,2,0,0,1,0,4H15.35V75.38H102.8V26.76H94.92a2,2,0,0,1,0-4h9.88a2,2,0,0,1,2,2V77.38A2,2,0,0,1,104.8,79.38Z"/>
      </g>
    </g>
  </g>
</svg>
