<svg xmlns="http://www.w3.org/2000/svg" viewBox="0 0 131.9 101.24">
  <defs>
    <style>
      .e2a3f2c2-5344-4eaa-a7b6-ba3fd8604da0 {
        fill: #212121;
      }

      .e33b4c6c-a783-4ad5-99ef-62a0fae7a34e {
        fill: #59b574;
      }
    </style>
  </defs>
  <title>Asset 3money</title>
  <g id="aad907c0-f41e-49fa-ae08-54c0d2a9219c" data-name="Layer 2">
    <g id="b4707f39-fcc5-4fe4-8c1e-13d75e95e438" data-name="Layer 1">
      <g>
        <g>
          <path class="e2a3f2c2-5344-4eaa-a7b6-ba3fd8604da0" d="M104.43,101.16h-.06a156,156,0,0,1-21.58-2.51,2,2,0,0,1,.24-4l.33,0,.19,0a1.93,1.93,0,0,1,1.25.3,145.85,145.85,0,0,0,19.69,2.22,2,2,0,0,1-.06,4Z"/>
          <path class="e2a3f2c2-5344-4eaa-a7b6-ba3fd8604da0" d="M83.73,98.63a2,2,0,0,1-.19-4c8.53-.83,15.9-12,16.79-21.46a2,2,0,1,1,4,.38c-1.06,11.25-9.51,24-20.39,25.06Z"/>
          <path class="e2a3f2c2-5344-4eaa-a7b6-ba3fd8604da0" d="M83.73,98.63l-.34,0L79,97.83c-12.57-2.22-25.56-4.52-38.15-2.7a2,2,0,1,1-.57-4c13.23-1.9,26.54.45,39.41,2.72l4.38.77a2,2,0,0,1-.34,4Z"/>
          <path class="e2a3f2c2-5344-4eaa-a7b6-ba3fd8604da0" d="M74.05,96.72l-.34,0C63.8,95,52.28,93.36,41,95.05a2,2,0,1,1-.59-4c8.53-1.28,17.08-.76,25,.28a37.55,37.55,0,0,1-5-5.87,2,2,0,1,1,3.27-2.29c3.23,4.61,7.19,8,11.15,9.66a2,2,0,0,1-.75,3.85Z"/>
          <path class="e2a3f2c2-5344-4eaa-a7b6-ba3fd8604da0" d="M104.43,101.16h-.09a167,167,0,0,1-21-2.56,2,2,0,0,1,.68-3.94,160.76,160.76,0,0,0,20.44,2.5,2,2,0,0,1-.08,4Z"/>
          <path class="e2a3f2c2-5344-4eaa-a7b6-ba3fd8604da0" d="M108,101.24c-1.2,0-2.42,0-3.67-.08a2,2,0,0,1,.17-4,62.3,62.3,0,0,0,23.38-3l-.29-51.74a61.35,61.35,0,0,1-6.41,1.63,2,2,0,0,1-.77-3.92,55.71,55.71,0,0,0,8.47-2.38,2,2,0,0,1,2.69,1.86l.32,56a2,2,0,0,1-1.31,1.88A63.84,63.84,0,0,1,108,101.24Z"/>
          <path class="e2a3f2c2-5344-4eaa-a7b6-ba3fd8604da0" d="M107,101.2c-.87,0-1.75,0-2.65,0a2,2,0,0,1,.06-4h.06a68.86,68.86,0,0,0,12.87-.72c1.52-3.77,7-9.32,10.39-11.32l-.18-32.55c-2.86-.82-5.57-3.71-6.2-4.42a2,2,0,0,1,3-2.67c2.08,2.34,4.12,3.4,4.7,3.31a2,2,0,0,1,2.51,1.92l.2,35.65a2,2,0,0,1-1.47,1.94c-2.26.62-9.15,7.94-9.34,9.91a2,2,0,0,1-1.64,2A69.6,69.6,0,0,1,107,101.2Z"/>
          <path class="e2a3f2c2-5344-4eaa-a7b6-ba3fd8604da0" d="M113.82,77.79a6.4,6.4,0,0,1-4.34-1.69,6.79,6.79,0,0,1-2.19-5,7.11,7.11,0,0,1,.11-1.27,2,2,0,0,1,3.94.69,2.87,2.87,0,0,0,0,.55,2.76,2.76,0,0,0,.89,2,2.43,2.43,0,0,0,1.87.64,3.63,3.63,0,0,0,3-3.51,2.18,2.18,0,0,0-1.5-2.16,2,2,0,1,1,1.33-3.77,6.14,6.14,0,0,1,4.17,5.91,7.54,7.54,0,0,1-6.7,7.51A5.44,5.44,0,0,1,113.82,77.79Z"/>
          <path class="e33b4c6c-a783-4ad5-99ef-62a0fae7a34e" d="M78.44,89.79a3.54,3.54,0,0,1-1.66-.43A3.9,3.9,0,0,1,74.92,87a4.14,4.14,0,0,1-.14-1.77,1.14,1.14,0,0,0-.08-.64,11.77,11.77,0,0,1-1.7-1c-.23-.16-.47-.33-.71-.52a2,2,0,0,1,2.45-3.16l.53.39.09.06a8.63,8.63,0,0,0,1.55.88,1.94,1.94,0,0,1,.76.6,5.27,5.27,0,0,1,1,2.26,4.68,4.68,0,0,1,2.77-2l.31-.06a5.3,5.3,0,0,0,2-.6,4.42,4.42,0,0,0,2.35-3.64,2,2,0,0,1,4,.48A8.41,8.41,0,0,1,85.75,85,9.5,9.5,0,0,1,82.42,86c-.33.11-.43.26-.49.67a3.48,3.48,0,0,1-2.08,2.81A3.54,3.54,0,0,1,78.44,89.79Z"/>
        </g>
        <g>
          <g>
            <path class="e2a3f2c2-5344-4eaa-a7b6-ba3fd8604da0" d="M24.25,95.56a1.75,1.75,0,0,1-.4,0,2,2,0,0,1-1.44-1.16L.16,43a2,2,0,0,1,.46-2.25C14,28.05,31.28,24.05,48,20.17L52.88,19a1.63,1.63,0,0,1,.53-.21,146.86,146.86,0,0,0,21.13-6.32A60.2,60.2,0,0,0,93.45.55,2,2,0,0,1,95.22,0,2,2,0,0,1,96.66,1.2l22.25,51.34a2,2,0,0,1-.46,2.24A65.39,65.39,0,0,1,97.19,68,149.32,149.32,0,0,1,75,74.66a2,2,0,0,1-.8,0l-3,.72C54.21,79.32,38.25,83,25.62,95A2,2,0,0,1,24.25,95.56ZM22.78,85.15,25,90.21q2.16-1.86,4.44-3.46a14.57,14.57,0,0,0-3.36-1.21A12.26,12.26,0,0,0,22.78,85.15Zm.29-4a18.19,18.19,0,0,1,4.14.55A16.08,16.08,0,0,1,33,84.33c7.34-4.51,15.4-7.38,23.13-9.55C46.48,71.27,37.67,62.85,34.28,55c-3.74-8.64-3.46-20.17,1.3-27.51-7.77,2.12-15.92,4.93-23.21,9.42,2.13,6.13.79,11.42-3.74,14.88L21.4,81.28A10.35,10.35,0,0,1,23.07,81.15Zm42.3-8.68a1.68,1.68,0,0,1,.45.06l4.39-1,4.11-1c7.93-4.6,10-19,6.05-28.14S64.82,23,54.44,22.75c-1.86.45-3.72.88-5.58,1.31l-4.94,1.16a2.35,2.35,0,0,1-.37.24c-8.24,4-9.78,18.33-5.6,28,3.92,9.06,16.3,19.05,27.11,19.05h.31ZM63,20.57C72.14,24.2,80.51,32.68,84,40.81c3.59,8.3,2.9,20.25-2.19,27.87,4-1.06,7.94-2.22,11.74-3.61a70.93,70.93,0,0,0,12.29-6c-.08-4.07,2.76-11.31,5.12-14.5L98.06,14.7a10.8,10.8,0,0,1-3.89-.35A18,18,0,0,1,87,10.74a78.29,78.29,0,0,1-15.4,7.14C68.74,18.88,65.87,19.76,63,20.57Zm50,28.32a38.83,38.83,0,0,0-2.82,7.59,53.07,53.07,0,0,0,4.52-3.65ZM4.4,42.74l2.36,5.44c2.91-2.61,3-6,2.11-9.06A53.63,53.63,0,0,0,4.4,42.74ZM90.33,8.32a14.75,14.75,0,0,0,3.88,1.88,11.72,11.72,0,0,0,2.21.51L94.09,5.35C92.87,6.4,91.61,7.39,90.33,8.32Z"/>
            <path class="e2a3f2c2-5344-4eaa-a7b6-ba3fd8604da0" d="M25.3,65.82a6.31,6.31,0,0,1-2.06-.34A6.2,6.2,0,0,1,19.58,62a7.59,7.59,0,0,1,3.2-9.57A6.33,6.33,0,0,1,27.94,52a6.75,6.75,0,0,1,4,3.71A7.31,7.31,0,0,1,28.57,65,7,7,0,0,1,25.3,65.82Zm.53-10.15a2.45,2.45,0,0,0-1.16.3,3.67,3.67,0,0,0-1.42,4.46,2.25,2.25,0,0,0,1.3,1.27,2.71,2.71,0,0,0,2.13-.25,3.28,3.28,0,0,0,1.56-4.12h0a2.74,2.74,0,0,0-1.61-1.52A2.45,2.45,0,0,0,25.83,55.67Z"/>
            <path class="e2a3f2c2-5344-4eaa-a7b6-ba3fd8604da0" d="M92.79,43.81a6.6,6.6,0,0,1-2.14-.37,6.8,6.8,0,0,1-4-3.72A7.28,7.28,0,0,1,90,30.51,6.63,6.63,0,0,1,95.37,30,6.25,6.25,0,0,1,99,33.5,7.52,7.52,0,0,1,95.81,43,6.37,6.37,0,0,1,92.79,43.81Zm.5-10.13a2.89,2.89,0,0,0-1.38.37,3.25,3.25,0,0,0-1.56,4.08A2.77,2.77,0,0,0,92,39.66a2.43,2.43,0,0,0,2-.15,3.62,3.62,0,0,0,1.42-4.42h0a2.23,2.23,0,0,0-1.31-1.28A2.17,2.17,0,0,0,93.29,33.68Z"/>
          </g>
          <path class="e33b4c6c-a783-4ad5-99ef-62a0fae7a34e" d="M66.1,68.49l-.33,0A3.94,3.94,0,0,1,63.14,67a4.35,4.35,0,0,1-.82-1.57,1.29,1.29,0,0,0-.32-.56,12.29,12.29,0,0,1-2-.28,24.24,24.24,0,0,1-6-2.29l-.14-.07A4.43,4.43,0,0,1,52,59.94a3.39,3.39,0,0,1,.3-3.1A5.17,5.17,0,0,1,53.93,55a4,4,0,0,1,2.33-1,3.26,3.26,0,0,1,2.72.76,4.24,4.24,0,0,0,1.85.92c2,.5,2.84-.11,3.11-.31.1-.08.17-.13.08-.54a1.37,1.37,0,0,0-.65-1,5,5,0,0,0-1.11-.54c-.93-.28-1.73-.51-2.39-.67l-1.66-.37-1.71-.38a29.21,29.21,0,0,1-3.38-1,17.2,17.2,0,0,1-2.73-1.25,11.42,11.42,0,0,1-4.57-4.73,10.18,10.18,0,0,1-1.21-5.21,8.09,8.09,0,0,1,4.62-7.07c0-.1-.06-.18-.08-.24h0a3.59,3.59,0,0,1,.79-3.84,3.37,3.37,0,0,1,3.13-1,3.67,3.67,0,0,1,2.61,1.83,7.93,7.93,0,0,1,.7,1.58,1.34,1.34,0,0,0,.12.3l.6.06a13.1,13.1,0,0,1,5.13,1.85A13.6,13.6,0,0,1,65,35.27l.17.19v0a3,3,0,0,1,.73,2.31,2.7,2.7,0,0,1-.7,1.72c-.79.87-1.39,1.52-1.79,1.94a3.41,3.41,0,0,1-1.25.9,4,4,0,0,1-3.9-.39l-.31-.25a3.66,3.66,0,0,0-.29-.23,4.52,4.52,0,0,0-1.37-.77,1.84,1.84,0,0,0-1.58,0l0,0a.51.51,0,0,0,0,.09,1.6,1.6,0,0,0,.91,1,7.46,7.46,0,0,0,1.14.47c.57.18,1.26.36,2,.53l1.75.35,1.85.37a23.61,23.61,0,0,1,3.52,1,12.64,12.64,0,0,1,4.83,3.1,11.57,11.57,0,0,1,2.71,4.41l0,.12a8.57,8.57,0,0,1-1.16,8.7,9.29,9.29,0,0,1-2.64,2.27c-.26.24-.29.41-.19.81a3.52,3.52,0,0,1-3.36,4.51ZM55.92,58.82a20.46,20.46,0,0,0,4.9,1.89l.12,0a7.76,7.76,0,0,0,1.76.2,2.07,2.07,0,0,1,.94.26,5.35,5.35,0,0,1,1.83,1.67A4.67,4.67,0,0,1,67.25,60l.26-.17a5.42,5.42,0,0,0,1.63-1.36,4.64,4.64,0,0,0,.51-5q-.08-.21-.12-.39a7.52,7.52,0,0,0-1.74-2.67h0a8.75,8.75,0,0,0-3.33-2.1,19.72,19.72,0,0,0-2.9-.83l-1.81-.37-1.82-.36c-.92-.2-1.71-.41-2.38-.61a11.61,11.61,0,0,1-1.8-.74A5.61,5.61,0,0,1,50.84,42a3.88,3.88,0,0,1,2-4.83,5.82,5.82,0,0,1,4.7-.22,8.3,8.3,0,0,1,2.58,1.41l.41.33c.26-.27.6-.64,1-1.11a12.94,12.94,0,0,0-1.4-1,9.11,9.11,0,0,0-3.53-1.3c-.38,0-.79-.07-1.21-.09a2,2,0,0,1-1.24-.51,5.55,5.55,0,0,1-.48-.49,2,2,0,0,1-1.35,1.42,8,8,0,0,0-1.25.51,4.11,4.11,0,0,0-2.49,3.75,6.22,6.22,0,0,0,.79,3.18,7.4,7.4,0,0,0,3,3.08,14.54,14.54,0,0,0,2.09,1A27.13,27.13,0,0,0,57.4,48l1.67.37,1.72.39c.76.18,1.64.43,2.62.73a8.59,8.59,0,0,1,2,1A5.46,5.46,0,0,1,67.94,54a4.34,4.34,0,0,1-1.59,4.56,7.46,7.46,0,0,1-6.49,1A8.29,8.29,0,0,1,56.61,58h0l-.23.16c-.37.28-.45.44-.46.47s0,.07-.05.1Zm.4-.81Zm0,0h0Zm0,0Zm0,0Zm0,0Zm5.85-19.87h0Zm.16-1.42Z"/>
        </g>
      </g>
    </g>
  </g>
</svg>
