<svg id="Layer_1" data-name="Layer 1" xmlns="http://www.w3.org/2000/svg" viewBox="0 0 80 80"><defs><style>.cls-1{fill:#6cd48d;}</style></defs><title>backercamp-performance</title><path d="M20.88,56.87c-.75-4.65-1.74-10.11.83-14.37A14.52,14.52,0,0,1,35,35.33c1,.06,1-1.43,0-1.51A15.58,15.58,0,0,0,21.1,40.59c-3.53,4.91-2.68,11-1,16.5a.42.42,0,0,0,.8-.22Z"/><path d="M30,42.05a7.27,7.27,0,0,1,5-.78.6.6,0,0,0,.32-1.16,5.44,5.44,0,0,0-5.78,1.37.37.37,0,0,0,.44.57Z"/><path d="M31.23,44.65a2.28,2.28,0,0,1,2.88.11c.44.37,1.29-.14.87-.68a2.73,2.73,0,0,0-4.37.09c-.29.39.3.75.62.48Z"/><path d="M32.32,47.29a2.13,2.13,0,0,1,1.25-.08c.72.17,1-1,.3-1.09a2.52,2.52,0,0,0-1.89.37c-.39.26-.14,1,.34.8Z"/><path d="M30.52,50.66a18.93,18.93,0,0,0,1.74,8.8c.25.54,1.13.16,1-.4a55.22,55.22,0,0,1-1.82-8.52c-.07-.53-.85-.35-.88.12Z"/><path d="M31.94,59.42a52.18,52.18,0,0,0-7.84,1.06c-3.19.54-6.93,1.78-9.9-.07V61.8a20.57,20.57,0,0,1,5.67-2.36c.91-.24.52-1.59-.39-1.4a19.5,19.5,0,0,0-6.1,2.37.81.81,0,0,0,0,1.39c2.11,1.29,4.21,1.28,6.6.93a65,65,0,0,0,12.07-2.56.38.38,0,0,0-.11-.75Z"/><path d="M20.1,59.78a4.53,4.53,0,0,0,.81,1.63A.58.58,0,0,0,22,61,3.17,3.17,0,0,0,21,59.21a.64.64,0,0,0-1.07.63,5.56,5.56,0,0,0,.95,1.88A.65.65,0,0,0,22,61.06a8,8,0,0,0-1.63-2.28.68.68,0,0,0-1.13.29,2.6,2.6,0,0,0,.53,2.64c.48.58,1.21-.08,1.13-.66A2.86,2.86,0,0,0,20,59.3c-.45-.43-1.4,0-1.13.67l.34.84,1.15-.67c-.65-.56-2.9-2-3.13-.26-.21,1.59,2,1.76,3,1.26a.7.7,0,0,0-.16-1.26,11.09,11.09,0,0,0-4.76.3c-.62.18-.73,1.25,0,1.36A8.74,8.74,0,0,0,19,61.37.7.7,0,0,0,19,60a16.88,16.88,0,0,0-3.72-.6c-.88,0-.89,1.13-.19,1.42l.64.25c.75.29,1.3-1,.55-1.3l-.81-.34-.19,1.41a14.12,14.12,0,0,1,3.35.49V60a7.06,7.06,0,0,1-2.93.14v1.36a9.14,9.14,0,0,1,4-.33L19.55,60c-1.45.71-.86.53-.14,1.16.46.4,1.43,0,1.14-.66l-.42-1-1.07.83a1.71,1.71,0,0,1,.58,1.14l1.13-.66a1.15,1.15,0,0,1-.19-1.32l-1.12.3a7.27,7.27,0,0,1,1.45,2L22,61.06a5.89,5.89,0,0,1-.84-1.56l-1.08.62a2.18,2.18,0,0,1,.73,1.15l1.06-.44A5,5,0,0,0,20.6,59.4a.34.34,0,0,0-.5.38Z"/><path d="M20.68,59.79a.78.78,0,0,1,.05-.79h-.92a10.85,10.85,0,0,1,.88,2l1-.4c-.19-.3-.36-.61-.54-.92a.51.51,0,0,0-.88.51c.17.31.35.62.51.94.28.55,1.09.15,1-.41a7.62,7.62,0,0,0-1-2.27.54.54,0,0,0-1,.13,1.47,1.47,0,0,0,.43,1.58c.22.28.7-.09.49-.38Z"/><path class="cls-1" d="M28.55,33.61c0-1-.18-1.91-.26-2.87a26,26,0,0,1,0-2.93c0-1-1.57-1-1.59,0a12.36,12.36,0,0,0,1.05,6,.42.42,0,0,0,.77-.21Z"/><path class="cls-1" d="M28.39,27.71c5.18-2.86,9.92,2.21,15.23,1.81,3.45-.26,6.58-2,9.37-3.95.91-.63.09-2.09-.88-1.51-2.48,1.49-5,3.1-7.89,3.52-3.47.5-6-1.12-9.25-1.86-2.65-.61-5-.5-7.11,1.3-.38.34.11.93.53.69Z"/><path class="cls-1" d="M52.15,24.89a58.3,58.3,0,0,0-.69,9.24c0,2.27,1,6-.74,7.35a9.24,9.24,0,0,1-9.6,1.36,8.38,8.38,0,0,0-4.86-.77c-1,.18-.73,1.72.23,1.7,3.14-.05,5.74,2.24,8.88,1.93,2.76-.28,4.91-2.38,7.51-3.2a.85.85,0,0,0,.61-.8,121.73,121.73,0,0,1-.11-16.65c0-.69-1.11-.87-1.23-.16Z"/><path class="cls-1" d="M40,33.3c1.61-.19,3.54,1.4,3.13,3.11A2.6,2.6,0,0,1,39.59,38c-.78-.36-1.48.78-.69,1.18a3.87,3.87,0,0,0,5.44-2.58,3.57,3.57,0,0,0-4.47-4c-.35.1-.3.72.09.67Z"/><path class="cls-1" d="M27.73,21.88a5.53,5.53,0,0,0-.68-2.59A5.14,5.14,0,0,0,25.57,17c-.52-.36-1,.23-1,.74A8.86,8.86,0,0,0,25.78,20,9.79,9.79,0,0,0,27,22.17a.41.41,0,0,0,.69-.29Z"/><path class="cls-1" d="M24.82,23.88c-1.19-.59-2.45-1.39-3.85-1.33a.67.67,0,0,0-.17,1.31c1.16.44,2.49.42,3.67.85.48.18.8-.6.35-.83Z"/><path class="cls-1" d="M22.44,28.59c-1.65.17-3.59.24-5,1.3-.58.45.08,1.19.64,1.1a13.79,13.79,0,0,0,2.21-.77,12.58,12.58,0,0,1,2.25-.65c.54-.1.42-1-.14-1Z"/><path d="M43.15,53.14c7.16-3.7,14.16-.76,17.71,6.24.47.94,1.92.11,1.42-.83C58.39,51.28,50,47.34,42.71,52.4a.43.43,0,0,0,.44.74Z"/><path d="M61.55,59.32c-3.77.56-7.15,2.46-11.09,2.19a10.21,10.21,0,0,1-4.41-1.27C44.8,59.53,41,56.51,42,54.67c.62-1.14-1.13-2.17-1.74-1-1.85,3.47,3,7.5,5.81,8.7C51,64.49,57.59,63,61.84,60a.38.38,0,0,0-.29-.68Z"/><path d="M45.78,50.79c-.53,2.28.47,5.68,3.09,6.17s4.62-2.33,5.19-4.57a.89.89,0,0,0-.41-1,7.22,7.22,0,0,0-6.41.07.89.89,0,0,0,.45,1.64c1.29-.13,2.57-.23,3.86-.34l-.43-1.6L47.77,52.7c-.76.36-.41,1.35.21,1.6a4.41,4.41,0,0,0,4.64-.93.87.87,0,0,0-.38-1.44c-1.65-.45-3,.69-3.66,2.11a.87.87,0,0,0,.75,1.3,5.37,5.37,0,0,0,3.61-1.81.86.86,0,0,0-.37-1.43,3.55,3.55,0,0,0-2,.24c-.63.25-2.08,1.17-2.11-.2a.88.88,0,0,0-1.75,0,2.39,2.39,0,0,0,1.53,2.34c1.5.53,2.5-.95,3.88-.73l-.37-1.43a3.44,3.44,0,0,1-2.41,1.29l.74,1.3c.32-.65.85-1.52,1.71-1.32l-.38-1.44a2.55,2.55,0,0,1-2.74.55v1.51c1.11-.51,2.22-1,3.33-1.57a.86.86,0,0,0-.44-1.6c-1.28.1-2.57.22-3.86.3L48.14,53a5.42,5.42,0,0,1,4.62-.06l-.41-1C52,53.29,51,55.45,49.27,55.39c-2-.07-2.37-3-2.48-4.47,0-.54-.87-.73-1-.13Z"/><path d="M48.14,53.12a1.08,1.08,0,0,0-.41,1.15,1.33,1.33,0,0,0,.25.57,1.3,1.3,0,0,0,.19.22c.09.08.23.28.13.07.25.55,1.1.36,1.25-.17s-.5-1.12-1-.77l-.06.05h.6a.31.31,0,0,1-.22-.26.53.53,0,0,1,0-.18s.06-.22,0-.13a.46.46,0,0,0-.72-.55Z"/><path d="M62.93,53.46a22.84,22.84,0,0,0,3.62-1.76c.62-.39.23-1.55-.52-1.24a23.88,23.88,0,0,0-3.56,1.91c-.55.34-.19,1.36.46,1.09Z"/><path d="M59.89,50.86a25.09,25.09,0,0,0,2.93-2.81c.6-.64-.34-1.6-1-1a25.07,25.07,0,0,0-2.72,3c-.31.44.32,1.1.76.76Z"/><path d="M56.67,48.6a19.5,19.5,0,0,0,1.24-2.51c.3-.72-.92-1.24-1.26-.53a20.13,20.13,0,0,0-1,2.6.58.58,0,0,0,1.06.44Z"/></svg>